<svg xmlns="http://www.w3.org/2000/svg" viewBox="0 0 38 38"  fill="#3e07bf" ><path d="M31 .23H7A6.87 6.87 0 0 0 .11 7.1v24A6.88 6.88 0 0 0 7 38h24a6.88 6.88 0 0 0 6.87-6.87V7.1A6.87 6.87 0 0 0 31 .23zm3 30.9a2.94 2.94 0 0 1-3 2.94H7a2.94 2.94 0 0 1-3-2.94V7.1a3 3 0 0 1 3-2.95h24a3 3 0 0 1 3 2.95z" fill-rule="evenodd"/><path d="M28.7 13.66h-6.79v-1.94h6.79zm1.68 9.71c-.43 1.25-2 2.91-4.95 2.91S20 24.6 20 20.77 22.29 15 25.33 15a4.87 4.87 0 0 1 5.22 4.29 11.87 11.87 0 0 1 .09 2.08h-7.79a2.62 2.62 0 0 0 4.46 2zm-7.46-3.89h4.82a2.17 2.17 0 0 0-2.41-2.15 2.23 2.23 0 0 0-2.41 2.15zm-9.29 6.79H7.35V11.74h6.75c5.32.08 5.42 5.29 2.64 6.7 3.36 1.23 3.47 7.83-3.11 7.83zm-3.36-8.73h3.47c2.44 0 2.82-2.91-.3-2.91h-3.17zm3.29 2.92h-3.29v2.92h3.24c2.96 0 2.78-2.92.05-2.92z"/></svg>