<svg xmlns="http://www.w3.org/2000/svg" viewBox="0 0 38 38"  fill="#3e07bf" fill-rule="evenodd" ><path d="M30.9.12h-24A6.87 6.87 0 0 0 0 7v24a6.87 6.87 0 0 0 6.87 6.9h24a6.87 6.87 0 0 0 6.9-6.9V7A6.87 6.87 0 0 0 30.9.12zm3 30.91a3 3 0 0 1-3 2.94h-24A2.94 2.94 0 0 1 3.93 31V7a3 3 0 0 1 2.94-2.95h24a3 3 0 0 1 3 3zM15.92 19a3.49 3.49 0 0 1-2.77 1.31 3.35 3.35 0 0 1-3.51-3.51 3.35 3.35 0 0 1 3.51-3.5 3.51 3.51 0 0 1 2.77 1.29l.41.47 2.79-2.57-.37-.49A7.25 7.25 0 0 0 13 9.51c-4.39 0-7.58 3.05-7.58 7.25S8.6 24 13 24a7.27 7.27 0 0 0 5.78-2.51l.35-.44-2.78-2.58zm12.55-2.84l-3.04 7.03-2.99-7.03h-4.1l5.33 12.35H27l5.35-12.35h-3.88z"/></svg>