<svg xmlns="http://www.w3.org/2000/svg" viewBox="0 0 38 38"  fill="#3e07bf" fill-rule="evenodd" ><path d="M31.13.23H7.1A6.86,6.86,0,0,0,.23,7.1v24A6.87,6.87,0,0,0,7.1,38h24A6.88,6.88,0,0,0,38,31.13V7.1A6.87,6.87,0,0,0,31.13.23Zm2.94,30.9a2.94,2.94,0,0,1-2.94,2.94H7.1a3,3,0,0,1-2.95-2.94V7.1A3,3,0,0,1,7.1,4.15h24A3,3,0,0,1,34.07,7.1Z"/><path d="M30.35 19.06a6 6 0 0 1-2.52 4.68 11.67 11.67 0 0 1-5.62 1.65c2.4 1.37 2.09 7 2.07 7.69a13.82 13.82 0 0 1-.19 2.18h-9a15.13 15.13 0 0 1-.19-2.18c0-.69-.32-6.32 2.07-7.69a11.63 11.63 0 0 1-5.61-1.65 6 6 0 0 1-2.53-4.68c-.21-1.7-.08-4.54 1.72-6.2a7.54 7.54 0 0 1 .25-4.66 5.59 5.59 0 0 1 2.58.57 5.4 5.4 0 0 1 2.2 1.42 11.87 11.87 0 0 1 4-.51 11.83 11.83 0 0 1 4 .51 5.4 5.4 0 0 1 2.2-1.42 5.64 5.64 0 0 1 2.59-.57 7.54 7.54 0 0 1 .27 4.66c1.79 1.66 1.92 4.5 1.71 6.2M.6 26.25a3.64 3.64 0 0 1 1.89.14c.64.36 2 2.51 2.65 2.75a3.55 3.55 0 0 0 2.44.46 30.09 30.09 0 0 0 3.73-1.46l-1.46 3.31a5.64 5.64 0 0 1-2.31.48c-1.34 0-3.13-.42-3.73-1.29s-.94-2.3-1.52-2.9S.6 26.25.6 26.25"/></svg>