<svg xmlns="http://www.w3.org/2000/svg" viewBox="0 0 38 38"  fill="#ffc905" ><circle cx="19" cy="19" r="10.12"/><path d="M20 30.73l-.52 7.15h-.96L18 30.73h2zm5.73-2.07l3.12 6.45-.83.48L24 29.66l1.73-1zM29.66 24l5.93 4.02-.48.83-6.45-3.12 1-1.73zm1.07-6l7.15.52v.96l-7.15.52v-2zm-2.07-5.73l6.45-3.12.48.83L29.66 14l-1-1.73zM24 8.34l4.02-5.93.83.48-3.12 6.45-1.73-1zm-6-1.07l.52-7.14h.96L20 7.27h-2zm-5.73 2.07L9.15 2.89l.83-.48L14 8.34l-1.73 1zM8.35 14L2.42 9.98l.47-.83 6.46 3.12-1 1.73zm-1.08 6l-7.14-.52v-.96L7.27 18v2zm2.07 5.73l-6.45 3.12-.48-.83L8.34 24l1 1.73zM14 29.65l-4.02 5.93-.83-.48 3.12-6.45 1.73 1z"/></svg>