<?xml version="1.0" encoding="utf-8"?>
<!-- Generator: Adobe Illustrator 25.3.1, SVG Export Plug-In . SVG Version: 6.00 Build 0)  -->
<svg version="1.1" id="Layer_1" xmlns="http://www.w3.org/2000/svg" xmlns:xlink="http://www.w3.org/1999/xlink" x="0px" y="0px"
	 viewBox="0 0 320 100" style="enable-background:new 0 0 320 100;" xml:space="preserve">
<style type="text/css">
	.st0{fill:#FFFFFF;}
</style>
<g id="SvgjsG1033" transform="matrix(1.0729614085238022,0,0,1.0729614085238022,-3.6480688913065014,-3.6480688913065014)">
	<g>
		<path class="st0" d="M50,3.4C24.3,3.4,3.4,24.3,3.4,50S24.3,96.6,50,96.6S96.6,75.7,96.6,50S75.7,3.4,50,3.4z M50,93.4
			C26,93.4,6.6,74,6.6,50S26,6.6,50,6.6S93.4,26,93.4,50S74,93.4,50,93.4z"/>
		<path class="st0" d="M50,6.6C26,6.6,6.6,26,6.6,50S26,93.4,50,93.4S93.4,74,93.4,50S74,6.6,50,6.6z M73.4,31.9
			c2.3,0,4.2,1.9,4.2,4.2c0,2.3-1.9,4.2-4.2,4.2s-4.2-1.9-4.2-4.2C69.2,33.8,71.1,31.9,73.4,31.9z M25.7,37.1c2.3,0,4.2,1.9,4.2,4.2
			c0,2.3-1.9,4.2-4.2,4.2s-4.2-1.9-4.2-4.2C21.5,39,23.4,37.1,25.7,37.1z M86.6,55.6c-0.1,1.2-0.4,2.4-0.7,3.6
			C83.9,67.1,79.2,74.1,73,79c-6.3,4.9-14.2,7.9-22.8,7.9H48c-0.4,0-0.7-0.1-1.1-0.1c-0.3-0.1-0.5-0.1-0.7-0.1
			c-0.3,0-0.6-0.1-0.9-0.1c-0.2,0-0.5-0.1-0.7-0.1c-0.3,0-0.6-0.1-0.9-0.1c-0.3,0-0.6-0.1-0.8-0.1c-0.3-0.1-0.5-0.1-0.8-0.2
			c-0.3-0.1-0.5-0.1-0.8-0.2c-0.2-0.1-0.4-0.1-0.6-0.2c-14.4-3.7-25.6-16-27.3-31.5l-0.2-1.4l1.4-0.3c19.6-4.3,42.5-6.6,66.2-6.6
			h4.8l1.1-0.1V46l0.1,1.4c0.1,0.7,0.1,1.4,0.1,2c0,0.2,0,0.4,0.1,0.6v1.9C86.9,53.1,86.8,54.4,86.6,55.6z"/>
		<path class="st0" d="M83.7,49.4V50c0.1,6.4-1.7,12.4-4.8,17.5c-6,9.7-16.7,16.3-28.9,16.3c-3.6,0-7.1-0.6-10.5-1.7
			c-7-4.4-12-11.1-14.3-19C42.4,57.1,62.5,52.3,83.7,49.4z"/>
	</g>
</g>
<g id="SvgjsG1034" transform="matrix(1.6728003018064999,0,0,1.6728003018064999,119.99999920234666,1.996990741095253)">
	<path class="st0" d="M6.4,36.2V40H5.2C2.4,40,0,37.6,0,34.7V11.4h3.8v23.3c0,0.8,0.6,1.4,1.4,1.4C5.2,36.2,6.4,36.2,6.4,36.2z
		 M17,32.8V40h-3.7v-0.1C13,39.9,12.6,40,12.2,40c-2.8,0-5-2.2-5-5v-4.3c0-1.1,0.4-2.2,1.2-3c0.8-0.8,1.8-1.2,2.9-1.2h1.9v-4.3
		c0-0.6-0.5-1.1-1.1-1.1H12c-0.6,0-1.1,0.5-1.1,1.1v3H7.1v-3c0-2.7,2.2-4.8,4.8-4.8h0.2c2.7,0,4.8,2.2,4.8,4.8L17,32.8z M12.2,36.2
		c0.6,0,1.1-0.5,1.1-1.1l0-4.9l-2,0c-0.2,0-0.2,0.1-0.3,0.1c0,0.1-0.1,0.2-0.1,0.3v4.3C10.9,35.6,11.5,36.2,12.2,36.2z M30.8,39.9
		v6.9H27V17.4H33c2.6,0,4.8,2.1,4.8,4.8v13c0,2.6-2.1,4.8-4.8,4.8H30.8z M30.8,21.2v15H33c0.6,0,1-0.4,1-1v-13c0-0.5-0.4-1-1-1H30.8
		z M43.5,39.9c0-6.3,0-16.3,0-22.5l-3.8,0c0,6.2,0,16.2,0,22.4L43.5,39.9z M39.7,12.6h3.8v3.7h-3.8C39.7,16.3,39.7,12.6,39.7,12.6z
		 M50.9,40c-3,0-5.4-2.4-5.4-5.4v-3.1h3.8v3.1c0,0.9,0.7,1.6,1.6,1.6c0.9,0,1.6-0.7,1.6-1.6v-1.7l-6.9-7.2v-3.2c0-3,2.4-5.4,5.4-5.4
		c3,0,5.4,2.4,5.4,5.4V25h-3.8v-2.5c0-0.9-0.7-1.6-1.6-1.6c-0.8,0-1.6,0.7-1.6,1.6v1.6l6.9,7.2v3.2C56.3,37.6,53.9,40,50.9,40z
		 M67.1,21.2h-2.7V34c0,1.2,1,2.2,2.2,2.2V40c-3.3,0-6-2.7-6-6V21.2h-2.7v-3.8h2.7v-6h3.8v6h2.7C67.1,17.4,67.1,21.2,67.1,21.2z
		 M74,39.9c-2.9,0-5.2-2.4-5.2-5.2V22.2c0-2.6,2.2-4.8,4.8-4.8h0.8c2.6,0,4.8,2.2,4.8,4.8v5.2l-6.7,0.1v7.1c0,0.8,0.6,1.5,1.5,1.5
		s1.5-0.7,1.5-1.5v-2.5h3.7v2.5C79.2,37.6,76.8,39.9,74,39.9L74,39.9z M74.4,21.1h-0.8c-0.6,0-1.1,0.5-1.1,1.1v1.7l3-0.1v-1.6
		C75.5,21.6,75,21.1,74.4,21.1z M87,18.3c2.7,0,4.9,2.2,4.9,4.9v1.9h-3.8v-1.9c0-0.6-0.5-1.1-1.1-1.1h-0.8c-0.6,0-1.1,0.5-1.1,1.1
		L85,40h-3.8l0.1-16.9v-5.8H85v1c0.4-0.1,0.8-0.1,1.1-0.1H87L87,18.3z M97.5,39.9c0-6.3,0-16.3,0-22.5l-3.8,0c0,6.2,0,16.2,0,22.4
		L97.5,39.9z M93.7,12.6h3.8v3.7h-3.8C93.7,16.3,93.7,12.6,93.7,12.6z M108.2,21.2h-2.7V34c0,1.2,1,2.2,2.2,2.2V40c-3.3,0-6-2.7-6-6
		V21.2H99v-3.8h2.7v-6h3.8v6h2.7C108.2,17.4,108.2,21.2,108.2,21.2z M119.6,32.8V40h-3.7v-0.1c-0.4,0.1-0.7,0.1-1.1,0.1
		c-2.8,0-5-2.2-5-5v-4.3c0-1.1,0.4-2.2,1.2-3c0.8-0.8,1.8-1.2,2.9-1.2h1.9v-4.3c0-0.6-0.5-1.1-1.1-1.1h-0.2c-0.6,0-1.1,0.5-1.1,1.1
		v3h-3.7v-3c0-2.7,2.2-4.8,4.8-4.8h0.2c2.7,0,4.8,2.2,4.8,4.8L119.6,32.8z M114.8,36.2c0.6,0,1.1-0.5,1.1-1.1l0-4.9l-2,0
		c-0.2,0-0.2,0.1-0.3,0.1c0,0.1-0.1,0.2-0.1,0.3v4.3C113.4,35.6,114,36.2,114.8,36.2z"/>
</g>
</svg>
