<svg viewBox="0 0 320 100">
	<defs id="SvgjsDefs1032">
	</defs>
	<g id="SvgjsG1033" featurekey="symbolFeature-0" transform="matrix(1.0729614085238022,0,0,1.0729614085238022,-3.6480688913065014,-3.6480688913065014)" fill="#00204a">
		<g xmlns="http://www.w3.org/2000/svg">
			<path d="M50,3.4C24.3,3.4,3.4,24.3,3.4,50c0,25.7,20.9,46.6,46.6,46.6c25.7,0,46.6-20.9,46.6-46.6C96.6,24.3,75.7,3.4,50,3.4z    M50,93.4C26,93.4,6.6,74,6.6,50S26,6.6,50,6.6S93.4,26,93.4,50S74,93.4,50,93.4z">
			</path>
			<path d="M86.9,49.4c0-0.6,0-1.3-0.1-2L86.7,46h0l0-0.2l-1.1,0.1l-0.3,0c-1.5,0-3,0-4.5,0c-23.7,0-46.6,2.3-66.2,6.6l-1.4,0.3   l0.2,1.4C15.1,69.7,26.3,82,40.7,85.7c0.2,0.1,0.4,0.1,0.6,0.2c0.3,0.1,0.5,0.1,0.8,0.2c0.3,0.1,0.5,0.1,0.8,0.2   c0.2,0,0.5,0.1,0.8,0.1c0.3,0,0.6,0.1,0.9,0.1c0.2,0,0.5,0.1,0.7,0.1c0.3,0,0.6,0.1,0.9,0.1c0.2,0,0.4,0,0.7,0.1   c0.4,0,0.7,0.1,1.1,0.1c0.2,0,0.4,0,0.6,0c0.5,0,1.1,0,1.6,0c0,0,0,0,0,0c0,0,0,0,0,0s0,0,0,0c17.2,0,31.6-11.8,35.7-27.7   c0.3-1.2,0.6-2.4,0.7-3.6c0.2-1.2,0.3-2.5,0.4-3.7c0-0.6,0-1.3,0-1.9C86.9,49.8,86.9,49.6,86.9,49.4z M78.9,67.5   C72.9,77.2,62.2,83.8,50,83.8c-3.6,0-7.1-0.6-10.5-1.7c-7-4.4-12-11.1-14.3-19c17.2-6,37.3-10.8,58.5-13.7c0,0.2,0,0.4,0,0.6   C83.8,56.4,82,62.4,78.9,67.5z">
			</path>
			<circle cx="25.7" cy="41.3" r="4.2">
			</circle>
			<circle cx="73.4" cy="36.1" r="4.2">
			</circle>
		</g>
	</g>
	<g id="SvgjsG1034" featurekey="nameFeature-0" transform="matrix(1.6728003018064999,0,0,1.6728003018064999,119.99999920234666,1.996990741095253)" fill="#00204a">
		<path d="M6.4 36.16 l0 3.8 l-1.16 0 c-2.88 0 -5.24 -2.36 -5.24 -5.24 l0 -23.28 l3.8 0 l0 23.28 c0 0.76 0.64 1.44 1.44 1.44 l1.16 0 z M17.04 32.76 l0 7.2 l-3.68 0 l0 -0.12 c-0.36 0.08 -0.72 0.12 -1.12 0.12 c-2.8 0 -5.04 -2.24 -5.04 -5.04 l0 -4.28 c0 -1.12 0.44 -2.16 1.24 -2.96 c0.76 -0.76 1.8 -1.2 2.92 -1.2 l1.92 0 l0 -4.32 c0 -0.6 -0.52 -1.12 -1.12 -1.12 l-0.2 0 c-0.64 0 -1.12 0.52 -1.12 1.12 l0 3.04 l-3.72 0 l0 -3.04 c0 -2.68 2.16 -4.84 4.84 -4.84 l0.2 0 c2.68 0 4.84 2.16 4.84 4.84 z M12.24 36.24 c0.6 0 1.12 -0.48 1.12 -1.08 l-0.04 -4.92 l-1.96 -0.04 c-0.16 0 -0.24 0.08 -0.32 0.12 c-0.04 0.08 -0.12 0.16 -0.12 0.32 l0 4.28 c0 0.72 0.6 1.32 1.32 1.32 z M30.84 39.92 l0 6.92 l-3.8 0 l0 -29.48 l5.92 0 c2.64 0 4.76 2.12 4.76 4.76 l0 13.04 c0 2.6 -2.12 4.76 -4.76 4.76 l-2.12 0 z M30.84 21.16 l0 14.96 l2.12 0 c0.56 0 0.96 -0.44 0.96 -0.96 l0 -13.04 c0 -0.52 -0.4 -0.96 -0.96 -0.96 l-2.12 0 z M43.519999999999996 39.88 c0.04 -6.28 0.04 -16.32 0 -22.52 l-3.8 0.04 c0.04 6.16 0.04 16.16 0 22.44 z M39.72 12.600000000000001 l3.8 0 l0 3.72 l-3.8 0 l0 -3.72 z M50.92 39.96 c-2.96 0 -5.36 -2.4 -5.36 -5.36 l0 -3.12 l3.8 0 l0 3.12 c0 0.88 0.72 1.56 1.56 1.56 c0.88 0 1.56 -0.68 1.56 -1.56 l0 -1.72 l-6.92 -7.16 l0 -3.16 c0 -2.96 2.4 -5.4 5.36 -5.4 s5.36 2.44 5.36 5.4 l0 2.48 l-3.8 0 l0 -2.48 c0 -0.88 -0.68 -1.56 -1.56 -1.56 c-0.84 0 -1.56 0.68 -1.56 1.56 l0 1.6 l6.92 7.2 l0 3.24 c0 2.96 -2.4 5.36 -5.36 5.36 z M67.08 21.2 l-2.72 0 l0 12.76 c0 1.2 1 2.16 2.2 2.16 l0 3.84 c-3.32 0 -6 -2.68 -6 -6 l0 -12.76 l-2.72 0 l0 -3.84 l2.72 0 l0 -6 l3.8 0 l0 6 l2.72 0 l0 3.84 z M73.96000000000001 39.92 c-2.88 0 -5.2 -2.36 -5.2 -5.24 l0 -12.48 c0 -2.64 2.16 -4.8 4.8 -4.8 l0.84 0 c2.64 0 4.8 2.16 4.8 4.8 l0 5.24 l-6.72 0.12 l0 7.12 c0 0.84 0.64 1.52 1.48 1.52 s1.52 -0.68 1.52 -1.52 l0 -2.48 l3.72 0 l0 2.48 c0 2.88 -2.36 5.24 -5.24 5.24 z M74.4 21.08 l-0.84 0 c-0.6 0 -1.08 0.52 -1.08 1.12 l0 1.68 l3 -0.08 l0 -1.6 c0 -0.6 -0.48 -1.12 -1.08 -1.12 z M87 18.28 c2.72 0 4.92 2.16 4.92 4.88 l0 1.92 l-3.8 0 l0 -1.92 c0 -0.64 -0.48 -1.12 -1.12 -1.12 l-0.84 0 c-0.6 0 -1.12 0.48 -1.12 1.12 l-0.08 16.88 l-3.76 0 l0.08 -16.88 l0 -5.76 l3.76 0 l0 1 c0.36 -0.08 0.76 -0.12 1.12 -0.12 l0.84 0 z M97.52 39.88 c0.04 -6.28 0.04 -16.32 0 -22.52 l-3.8 0.04 c0.04 6.16 0.04 16.16 0 22.44 z M93.72 12.600000000000001 l3.8 0 l0 3.72 l-3.8 0 l0 -3.72 z M108.24 21.2 l-2.72 0 l0 12.76 c0 1.2 1 2.16 2.2 2.16 l0 3.84 c-3.32 0 -6 -2.68 -6 -6 l0 -12.76 l-2.72 0 l0 -3.84 l2.72 0 l0 -6 l3.8 0 l0 6 l2.72 0 l0 3.84 z M119.56 32.76 l0 7.2 l-3.68 0 l0 -0.12 c-0.36 0.08 -0.72 0.12 -1.12 0.12 c-2.8 0 -5.04 -2.24 -5.04 -5.04 l0 -4.28 c0 -1.12 0.44 -2.16 1.24 -2.96 c0.76 -0.76 1.8 -1.2 2.92 -1.2 l1.92 0 l0 -4.32 c0 -0.6 -0.52 -1.12 -1.12 -1.12 l-0.2 0 c-0.64 0 -1.12 0.52 -1.12 1.12 l0 3.04 l-3.72 0 l0 -3.04 c0 -2.68 2.16 -4.84 4.84 -4.84 l0.2 0 c2.68 0 4.84 2.16 4.84 4.84 z M114.76 36.24 c0.6 0 1.12 -0.48 1.12 -1.08 l-0.04 -4.92 l-1.96 -0.04 c-0.16 0 -0.24 0.08 -0.32 0.12 c-0.04 0.08 -0.12 0.16 -0.12 0.32 l0 4.28 c0 0.72 0.6 1.32 1.32 1.32 z">
		</path>
	</g>
</svg>
